<svg xmlns="http://www.w3.org/2000/svg" style="display: none;" viewBox="0 0 32 32"><symbol id="cloudy" ><title>cloud</title><path d="M50.976,26.194C50.447,17.194,43.028,10,34.085,10c-5.43,0-10.688,2.663-13.946,7.008c-0.075-0.039-0.154-0.066-0.23-0.102 c-0.198-0.096-0.399-0.187-0.604-0.269c-0.114-0.045-0.228-0.086-0.343-0.126c-0.203-0.071-0.409-0.134-0.619-0.191 c-0.115-0.031-0.229-0.063-0.345-0.089c-0.225-0.051-0.455-0.09-0.687-0.125c-0.101-0.015-0.2-0.035-0.302-0.046 C16.677,16.023,16.341,16,16,16c-4.963,0-9,4.037-9,9c0,0.127,0.008,0.252,0.016,0.377v0.004C2.857,27.649,0,32.399,0,37.154 C0,44.237,5.762,50,12.845,50h24.508c0.104,0,0.207-0.006,0.311-0.014l0.062-0.008l0.134,0.008C37.962,49.994,38.064,50,38.169,50 h9.803C54.604,50,60,44.604,60,37.972C60,32.483,56.173,27.56,50.976,26.194z M47.972,48h-9.803c-0.059,0-0.116-0.005-0.174-0.009 l-0.271-0.011l-0.198,0.011C37.469,47.995,37.411,48,37.353,48H12.845C6.865,48,2,43.135,2,37.154C2,33,4.705,28.688,8.433,26.901 L9,26.63V26c0-0.127,0.008-0.256,0.015-0.386l0.009-0.16l-0.012-0.21C9.006,25.163,9,25.082,9,25c0-3.859,3.141-7,7-7 c0.309,0,0.614,0.027,0.917,0.067c0.078,0.01,0.156,0.023,0.233,0.036c0.267,0.044,0.53,0.102,0.789,0.177 c0.035,0.01,0.071,0.017,0.106,0.027c0.285,0.087,0.563,0.197,0.835,0.321c0.071,0.032,0.14,0.067,0.21,0.101 c0.24,0.119,0.475,0.249,0.702,0.396C21.719,20.373,23,22.538,23,25c0,0.553,0.447,1,1,1s1-0.447,1-1c0-2.754-1.246-5.219-3.2-6.871 C24.667,14.379,29.388,12,34.085,12c7.745,0,14.177,6.135,14.848,13.888c-1.022-0.072-2.552-0.109-4.083,0.124 c-0.546,0.083-0.921,0.593-0.838,1.139c0.075,0.495,0.501,0.85,0.987,0.85c0.05,0,0.101-0.004,0.151-0.012 c2.227-0.337,4.548-0.021,4.684-0.002C54.49,28.872,58,33.161,58,37.972C58,43.501,53.501,48,47.972,48z"/></symbol><symbol id="water" viewBox="-31 0 479 479.87408"><title>water</title><path d="m120.4375 335.875c77.382812 0 120-45.457031 120-128 0-77.28125-109.390625-200.152344-114.046875-205.335938-1.558594-1.621093-3.707031-2.539062-5.953125-2.539062s-4.398438.917969-5.953125 2.539062c-4.65625 5.183594-114.046875 128.054688-114.046875 205.335938 0 82.542969 42.617188 128 120 128zm0-315.792969c22.902344 26.878907 104 126.359375 104 187.792969 0 51.09375-18.046875 112-104 112s-104-60.90625-104-112c0-61.433594 81.09375-160.914062 104-187.792969zm0 0"/><path d="m344.4375 351.875c45.757812 0 72-30.535156 72-83.792969 0-50.007812-63.449219-118.75-66.144531-121.65625-1.546875-1.5625-3.65625-2.441406-5.855469-2.441406s-4.308594.878906-5.855469 2.441406c-2.695312 2.90625-66.144531 71.648438-66.144531 121.65625 0 53.257813 26.238281 83.792969 72 83.792969zm0-187.921875c15.429688 17.953125 56 68.546875 56 104.128906 0 44.984375-18.839844 67.792969-56 67.792969s-56-22.808594-56-67.792969c0-35.582031 40.566406-86.175781 56-104.128906zm0 0"/><path d="m226.4375 322.578125c-2.039062 2.3125-50 57.089844-50 93.296875 0 40.671875 20.414062 64 56 64 35.582031 0 56-23.328125 56-64 0-36.207031-47.960938-90.984375-50-93.296875-1.5625-1.648437-3.730469-2.582031-6-2.582031s-4.441406.933594-6 2.582031zm6 141.296875c-26.535156 0-40-16.152344-40-48 0-21.746094 25.03125-57.144531 40-75.585938 14.976562 18.402344 40 53.808594 40 75.585938 0 31.847656-13.464844 48-40 48zm0 0"/><path d="m103.636719 303.835938c.265625.027343.53125.039062.800781.039062 4.261719 0 7.777344-3.34375 7.992188-7.601562.210937-4.257813-2.949219-7.933594-7.191407-8.359376-16.710937-.839843-32.265625-8.78125-42.746093-21.824218-21.277344-27.742188-14.230469-72.464844-14.167969-72.910156.582031-4.285157-2.347657-8.257813-6.613281-8.96875-4.265626-.707032-8.324219 2.101562-9.160157 6.34375-.355469 2.113281-8.289062 51.886718 17.191407 85.199218 13.109374 16.652344 32.734374 26.878906 53.894531 28.082032zm0 0"/><path d="m336.4375 319.875c14.761719-.210938 28.835938-6.273438 39.128906-16.855469 8.910156-11.460937 12.132813-26.347656 8.757813-40.464843-.820313-4.265626-4.890625-7.097657-9.175781-6.382813-4.285157.71875-7.214844 4.722656-6.597657 9.023437 2.449219 9.445313.566407 19.496094-5.136719 27.414063-7.238281 7.039063-16.882812 11.066406-26.976562 11.265625-4.417969 0-8 3.582031-8 8s3.582031 8 8 8zm0 0"/><path d="m228.011719 432.714844c-2.496094-1.007813-4.421875-3.058594-5.273438-5.613282-.847656-2.550781-.535156-5.351562.859375-7.652343 1.972656-3.953125.371094-8.761719-3.585937-10.734375-3.953125-1.976563-8.757813-.371094-10.734375 3.582031-3.289063 6.109375-3.910156 13.308594-1.71875 19.890625 2.195312 6.582031 7.007812 11.96875 13.300781 14.886719 3.957031 1.976562 8.761719.371093 10.738281-3.585938 1.972656-3.953125.371094-8.757812-3.585937-10.734375zm0 0"/></symbol><symbol id="clear-day" viewBox="0 0 400 400"><title>sun</title><g> <g> <path d="M371.84,100.04c-2.01-3.457-6.443-4.63-9.9-2.62l-35.36,20.44c-3.457,2.01-4.63,6.443-2.62,9.9 c2.01,3.457,6.443,4.63,9.9,2.62l35.36-20.44C372.677,107.929,373.85,103.497,371.84,100.04z"/> </g> </g><g> <g> <path d="M369.22,289.18l-35.36-20.44c-3.457-2.01-7.89-0.837-9.9,2.62c-2.01,3.457-0.837,7.89,2.62,9.9l35.36,20.44 c3.457,2.01,7.89,0.837,9.9-2.62C373.85,295.622,372.677,291.19,369.22,289.18z"/> </g> </g><g> <g> <path d="M200.099,342.62c-4.01-0.298-7.501,2.711-7.799,6.721c-0.027,0.359-0.027,0.719,0,1.078v40.84 c-0.298,4.01,2.711,7.501,6.721,7.799s7.501-2.711,7.799-6.721c0.027-0.359,0.027-0.719,0-1.078v-40.84 C207.117,346.41,204.108,342.918,200.099,342.62z"/> </g> </g><g> <g> <path d="M72.5,117.86L37.14,97.42c-3.457-2.01-7.89-0.837-9.9,2.62c-2.01,3.457-0.837,7.89,2.62,9.9l35.36,20.44 c3.457,2.01,7.89,0.837,9.9-2.62C77.13,124.302,75.957,119.87,72.5,117.86z"/> </g> </g><g> <g> <path d="M200.099,0.02c-4.01-0.298-7.501,2.711-7.799,6.721c-0.027,0.359-0.027,0.719,0,1.078v40.84 c0.022,3.989,3.251,7.218,7.24,7.24c4.021,0,7.28-3.259,7.28-7.28V7.82C207.117,3.81,204.108,0.318,200.099,0.02z"/> </g> </g><g> <g> <path d="M130.34,65.22l-20.4-35.36c-2.01-3.457-6.443-4.63-9.9-2.62c-3.457,2.01-4.63,6.443-2.62,9.9l20.4,35.36 c2.01,3.457,6.443,4.63,9.9,2.62C131.177,73.109,132.35,68.677,130.34,65.22z"/> </g> </g><g> <g> <path d="M200.618,134.94c-0.359-0.027-0.719-0.027-1.078,0c-35.678,0-64.6,28.922-64.6,64.6c0,4.021,3.259,7.28,7.28,7.28 c4.005-0.022,7.24-3.275,7.24-7.28c-0.022-27.636,22.364-50.058,50-50.08c0.027,0,0.053,0,0.08,0 c4.01,0.298,7.501-2.711,7.799-6.721S204.628,135.237,200.618,134.94z"/> </g> </g><g> <g> <path d="M397.98,198.98c-0.267-3.595-3.125-6.454-6.721-6.721h-40.84c-4.01-0.298-7.501,2.711-7.799,6.721 s2.711,7.501,6.721,7.799c0.359,0.027,0.72,0.027,1.079,0h40.84C395.269,206.482,398.278,202.99,397.98,198.98z"/> </g> </g><g> <g> <path d="M49.738,192.3c-0.359-0.027-0.719-0.027-1.078,0H7.82c-4.01,0.298-7.019,3.79-6.721,7.799 c0.267,3.595,3.125,6.454,6.721,6.721h40.84c4.01,0.298,7.501-2.711,7.799-6.721C56.757,196.089,53.748,192.597,49.738,192.3z"/> </g> </g><g> <g> <path d="M199.569,92.7c-59.006-0.008-106.846,47.819-106.855,106.825c-0.004,28.347,11.258,55.534,31.305,75.575 c20.009,20.059,47.188,31.316,75.52,31.28c59.006,0.008,106.847-47.819,106.855-106.825S258.575,92.708,199.569,92.7z M264.819,264.94c-36.053,36.053-94.507,36.053-130.56,0c-17.343-17.343-27.072-40.874-27.04-65.4 c-0.035-24.492,9.697-47.987,27.04-65.28v0.12c36.053-36.053,94.507-36.053,130.56,0 C300.873,170.433,300.873,228.887,264.819,264.94z"/> </g> </g><g> <g> <path d="M301.678,361.972c-0.006-0.011-0.012-0.022-0.019-0.032l-20.44-35.36c-2.01-3.457-6.443-4.63-9.9-2.62 c-3.457,2.01-4.63,6.443-2.62,9.9l20.44,35.36c2.002,3.453,6.422,4.634,9.88,2.64 C302.484,369.863,303.675,365.436,301.678,361.972z"/> </g> </g><g> <g> <path d="M299.28,27.24c-3.457-2.01-7.89-0.837-9.9,2.62l-20.44,35.36c-2.024,3.449-0.868,7.885,2.58,9.908 c0.007,0.004,0.013,0.008,0.02,0.012h0c3.454,2.014,7.887,0.847,9.901-2.608c0.006-0.011,0.013-0.022,0.019-0.032l20.44-35.36 C303.91,33.682,302.737,29.25,299.28,27.24z"/> </g> </g><g> <g> <path d="M127.76,323.96c-3.457-2.01-7.89-0.837-9.9,2.62l-20.44,35.36c-2.01,3.457-0.837,7.89,2.62,9.9s7.89,0.837,9.9-2.62 l20.44-35.36C132.39,330.402,131.217,325.97,127.76,323.96z"/> </g> </g><g> <g> <path d="M75.12,271.32c-2.01-3.457-6.443-4.63-9.9-2.62l-35.36,20.44c-3.457,2.01-4.63,6.443-2.62,9.9 c2.01,3.457,6.443,4.63,9.9,2.62l35.36-20.44C75.957,279.209,77.13,274.777,75.12,271.32z"/> </g> </g></symbol><symbol id="snowflake" viewBox="-7 0 480 480.008"><title>snowflake</title><path d="m460.238281 288.128906c-2.730469-1.578125-6.007812-1.914062-9-.921875l-66.402343 22.050781-40.472657-23.371093 45.839844-16.144531c2.488281-.871094 4.578125-2.605469 5.898437-4.894532l.4375-.757812c3.050782-5.28125 1.242188-12.035156-4.039062-15.082032-2.726562-1.574218-6.007812-1.910156-9-.917968l-66.398438 22.046875-36.214843-20.898438v-18.46875l36.207031-20.90625 66.398438 22.046875c2.992187.992188 6.273437.664063 9-.917968 5.28125-3.046876 7.089843-9.800782 4.039062-15.082032l-.429688-.765625c-1.320312-2.28125-3.410156-4.015625-5.898437-4.898437l-45.839844-16.140625 40.472657-23.371094 66.402343 22.050781c2.992188.992188 6.269531.664063 9-.921875 5.277344-3.046875 7.085938-9.800781 4.039063-15.078125l-.441406-.761718c-1.320313-2.28125-3.40625-4.015626-5.894532-4.894532l-45.839844-16.144531 22.765626-13.144531c7.65625-4.414063 10.273437-14.207032 5.859374-21.855469-4.417968-7.65625-14.203124-10.273437-21.859374-5.855469l-22.765626 13.144532 8.941407-47.769532c.488281-2.59375.027343-5.273437-1.285157-7.550781l-.441406-.761719c-3.046875-5.28125-9.800781-7.085937-15.078125-4.039062-2.730469 1.574218-4.65625 4.246094-5.296875 7.335937l-14.113281 68.527344-40.472656 23.367187 8.945312-47.765624c.488281-2.59375.023438-5.273438-1.289062-7.554688l-.4375-.757812c-3.050781-5.28125-9.800781-7.089844-15.082031-4.039063-2.726563 1.574219-4.65625 4.246094-5.296876 7.335937l-14.109374 68.527344-25.953126 14.984375-26.246093-13.113281v-32l52.292969-46.480469c2.351562-2.09375 3.707031-5.105469 3.707031-8.253906 0-6.097656-4.945313-11.042969-11.042969-11.042969h-.871094c-2.632812 0-5.183594.945313-7.183594 2.65625l-36.902343 31.632813v-46.726563l52.292969-46.480468c2.351562-2.105469 3.707031-5.105469 3.707031-8.265626 0-6.09375-4.945313-11.039062-11.042969-11.039062h-.871094c-2.632812 0-5.183594.945312-7.183594 2.65625l-36.902343 31.632812v-26.289062c0-8.839844-7.160157-16-16-16-8.84375 0-16 7.160156-16 16v26.289062l-36.898438-31.625c-2-1.710937-4.550781-2.65625-7.183593-2.65625h-.878907c-6.097656 0-11.039062 4.945313-11.039062 11.039063 0 3.152344 1.351562 6.160156 3.703125 8.257813l52.296875 46.480468v46.726563l-36.898438-31.625c-2-1.710938-4.550781-2.65625-7.183593-2.65625h-.878907c-6.097656 0-11.039062 4.945312-11.039062 11.042969 0 3.152343 1.351562 6.160156 3.703125 8.253906l52.296875 46.472656v32l-26.257813 13.128906-25.953125-14.984375-14.109375-68.527343c-.632812-3.089844-2.5625-5.761719-5.296875-7.335938-5.28125-3.050781-12.03125-1.242188-15.082031 4.039062l-.4375.757813c-1.320312 2.28125-1.777344 4.960937-1.289062 7.554687l8.945312 47.765626-40.472656-23.367188-14.113282-68.527344c-.632812-3.089844-2.558593-5.761718-5.296874-7.335937-5.277344-3.046875-12.03125-1.238281-15.078126 4.039062l-.441406.761719c-1.320312 2.277344-1.773437 4.960938-1.285156 7.550781l8.941406 47.769531-22.765625-13.144531c-7.65625-4.417969-17.441406-1.800781-21.859375 5.855469-4.414062 7.65625-1.796875 17.441406 5.859375 21.855469l22.765625 13.144531-45.839844 16.144531c-2.488281.871094-4.574218 2.609375-5.894531 4.894531l-.441406.761719c-3.046875 5.277344-1.238281 12.03125 4.039063 15.078125 2.730468 1.578125 6.007812 1.914063 9 .921875l66.402343-22.046875 40.472657 23.367188-45.839844 16.144531c-2.488282.871094-4.578125 2.605469-5.898438 4.894531l-.4375.761719c-3.050781 5.277344-1.242187 12.03125 4.039063 15.078125 2.726562 1.574219 6.007812 1.910156 9 .921875l66.398437-22.050781 36.226563 20.898437v18.46875l-36.210938 20.90625-66.398437-22.046875c-2.992188-.992187-6.273438-.664062-9 .917969-5.28125 3.046875-7.089844 9.800781-4.039063 15.082031l.4375.757813c1.320313 2.28125 3.410157 4.015625 5.898438 4.898437l45.839843 16.140625-40.472656 23.371094-66.402344-22.050781c-2.992187-.992188-6.269531-.664063-9 .921875-5.277343 3.046875-7.085937 9.800781-4.039062 15.078125l.441406.761718c1.320313 2.28125 3.40625 4.015626 5.894532 4.894532l45.839843 16.144531-22.765625 13.144531c-7.65625 4.414063-10.273437 14.199219-5.855468 21.855469 4.414062 7.65625 14.199218 10.273437 21.855468 5.855469l22.765625-13.144532-8.941406 47.769532c-.488281 2.59375-.027344 5.273437 1.285156 7.550781l.441407.761719c3.046874 5.28125 9.800781 7.085937 15.078124 4.039062 2.730469-1.574218 4.65625-4.246094 5.296876-7.335937l14.113281-68.527344 40.472656-23.367187-8.945313 47.765624c-.488281 2.59375-.023437 5.273438 1.289063 7.554688l.4375.757812c3.050781 5.28125 9.800781 7.089844 15.082031 4.039063 2.726563-1.574219 4.65625-4.246094 5.296875-7.335937l14.109375-68.527344 25.953125-14.984375 26.242188 13.113281v32l-52.296875 46.480469c-2.351563 2.105469-3.703125 5.105469-3.703125 8.253906 0 6.097656 4.941406 11.042969 11.039062 11.042969h.871094c2.632813 0 5.183594-.945313 7.183594-2.65625l36.90625-31.625v46.726562l-52.296875 46.480469c-2.351563 2.097656-3.703125 5.105469-3.703125 8.257813 0 6.09375 4.941406 11.039062 11.039062 11.039062h.871094c2.632813 0 5.183594-.945312 7.183594-2.65625l36.90625-31.625v26.289062c0 8.839844 7.15625 16 16 16 8.839843 0 16-7.160156 16-16v-26.289062l36.894531 31.625c2 1.710938 4.550781 2.65625 7.183594 2.65625h.871094c6.097656 0 11.039062-4.945312 11.039062-11.039062 0-3.152344-1.351562-6.160157-3.703125-8.257813l-52.285156-46.480469v-46.726562l36.894531 31.625c2 1.710937 4.550781 2.65625 7.183594 2.65625h.871094c6.097656 0 11.039062-4.945313 11.039062-11.042969 0-3.148437-1.351562-6.160156-3.703125-8.253906l-52.285156-46.480469v-32l26.253906-13.128906 25.953125 14.984375 14.109375 68.527343c.632813 3.089844 2.5625 5.761719 5.296875 7.335938 5.28125 3.050781 12.03125 1.242188 15.082031-4.039062l.4375-.757813c1.320313-2.28125 1.777344-4.960937 1.289063-7.554687l-8.945313-47.765626 40.472657 23.367188 14.113281 68.527344c.632812 3.089844 2.558593 5.761718 5.296875 7.335937 5.277344 3.046875 12.03125 1.238281 15.078125-4.039062l.441406-.761719c1.320313-2.277344 1.773437-4.960938 1.289063-7.550781l-8.945313-47.769531 22.765625 13.144531c7.65625 4.417969 17.441406 1.792969 21.859375-5.855469 4.414063-7.65625 1.796875-17.441406-5.859375-21.855469l-22.765625-13.144531 45.839844-16.144531c2.488281-.871094 4.574219-2.609375 5.894531-4.894531l.441406-.761719c3.046875-5.269531 1.238282-12.023438-4.046875-15.070313zm-211.351562-32.128906-16 8-16-8v-32l16-8 16 8zm0 0"/></symbol><symbol id="thermometer" viewBox="-184 0 581 581.55153"><title>thermometer</title><path d="m107.15625 0c-37.46875.0429688-67.832031 30.40625-67.875 67.875v325.101562c-28.816406 23.519532-43.148438 60.460938-37.734375 97.261719 8.230469 58.328125 62.191406 98.9375 120.515625 90.703125 52.707031-7.441406 91.859375-52.601562 91.75-105.828125.097656-31.824219-14.148438-61.992187-38.785156-82.136719v-325.101562c-.039063-37.46875-30.402344-67.8320312-67.871094-67.875zm87.265625 475.113281c.0625 48.191407-38.953125 87.316407-87.148437 87.378907-48.195313.066406-87.320313-38.953126-87.382813-87.148438-.035156-27.507812 12.898437-53.421875 34.90625-69.925781 2.441406-1.832031 3.878906-4.707031 3.878906-7.757813v-29.207031h19.390625v-19.390625h-19.390625v-29.089844h19.390625v-19.390625h-19.390625v-29.089843h19.390625v-19.390626h-19.390625v-29.089843h19.390625v-19.390625h-19.390625v-29.089844h19.390625v-19.390625h-19.390625v-29.089844h19.390625v-19.390625h-19.390625v-38.785156c0-26.777344 21.703125-48.480469 48.480469-48.480469 26.773438 0 48.480469 21.703125 48.480469 48.480469v329.804688c0 3.050781 1.4375 5.925781 3.878906 7.753906 22.019531 16.382812 34.96875 42.234375 34.90625 69.679687zm0 0"/><path d="m116.851562 427.601562v-340.335937h-19.390624v340.335937c-26.234376 5.355469-43.160157 30.960938-37.804688 57.195313s30.960938 43.160156 57.195312 37.804687c26.234376-5.355468 43.160157-30.960937 37.804688-57.195312-3.886719-19.042969-18.765625-33.917969-37.804688-37.804688zm-9.695312 76.597657c-16.066406 0-29.089844-13.023438-29.089844-29.085938 0-16.066406 13.023438-29.089843 29.089844-29.089843s29.089844 13.023437 29.089844 29.089843c0 16.0625-13.023438 29.085938-29.089844 29.085938zm0 0"/></symbol><symbol id="rain" viewBox="0 0 33.062 33.062"><title>rain</title><g> <path d="M25.615,22.324c-0.276,0-0.5-0.224-0.5-0.5s0.224-0.5,0.5-0.5c3.555,0,6.446-2.892,6.446-6.446 c0-3.553-2.892-6.443-6.446-6.443c-0.298,0-0.613,0.026-0.991,0.083c-0.214,0.033-0.426-0.079-0.522-0.273 C22.558,5.114,19.44,3.17,15.965,3.17c-4.184,0-7.804,2.839-8.804,6.904c-0.056,0.228-0.278,0.373-0.498,0.38l-0.127-0.007 c-0.003,0-0.006,0-0.009,0C3.437,10.447,1,12.886,1,15.884c0,3,2.441,5.44,5.442,5.44c0.276,0,0.5,0.224,0.5,0.5 s-0.224,0.5-0.5,0.5C2.89,22.324,0,19.435,0,15.884c0-3.502,2.81-6.361,6.294-6.44c1.241-4.303,5.161-7.274,9.67-7.274 c3.738,0,7.104,2.026,8.869,5.311c0.28-0.031,0.534-0.046,0.781-0.046c4.106,0,7.446,3.339,7.446,7.443 C33.062,18.984,29.721,22.324,25.615,22.324z"/> <path d="M25.615,22.324c-0.276,0-0.5-0.224-0.5-0.5s0.224-0.5,0.5-0.5c3.555,0,6.446-2.892,6.446-6.446 c0-3.553-2.892-6.443-6.446-6.443c-1.862,0-3.633,0.805-4.858,2.208c-0.181,0.209-0.497,0.23-0.705,0.048 c-0.208-0.181-0.229-0.497-0.048-0.705c1.414-1.621,3.459-2.55,5.611-2.55c4.106,0,7.446,3.339,7.446,7.443 C33.062,18.984,29.721,22.324,25.615,22.324z"/> </g><g> <path d="M8.275,30.892c-0.051,0-0.102-0.008-0.153-0.024c-0.263-0.084-0.407-0.366-0.323-0.629l0.918-2.855 c0.085-0.263,0.368-0.407,0.629-0.323c0.263,0.084,0.408,0.366,0.323,0.629l-0.918,2.856C8.683,30.757,8.486,30.892,8.275,30.892z M10.112,25.18c-0.051,0-0.102-0.008-0.153-0.024c-0.263-0.084-0.408-0.366-0.323-0.629l0.918-2.856 c0.085-0.263,0.366-0.405,0.629-0.323c0.263,0.084,0.407,0.366,0.323,0.629l-0.918,2.856C10.52,25.045,10.324,25.18,10.112,25.18z "/> </g><g> <path d="M18.275,30.892c-0.051,0-0.102-0.008-0.153-0.024c-0.263-0.084-0.407-0.366-0.323-0.629l0.918-2.855 c0.085-0.263,0.368-0.407,0.629-0.323c0.263,0.084,0.408,0.366,0.323,0.629l-0.918,2.856 C18.683,30.757,18.486,30.892,18.275,30.892z M20.112,25.18c-0.051,0-0.102-0.008-0.153-0.024 c-0.263-0.084-0.408-0.366-0.323-0.629l0.918-2.856c0.085-0.263,0.366-0.405,0.629-0.323c0.263,0.084,0.407,0.366,0.323,0.629 l-0.918,2.856C20.52,25.045,20.324,25.18,20.112,25.18z"/> </g><g> <path d="M13.275,30.892c-0.051,0-0.102-0.008-0.153-0.024c-0.263-0.084-0.407-0.366-0.323-0.629l0.918-2.855 c0.085-0.263,0.368-0.407,0.629-0.323c0.263,0.084,0.408,0.366,0.323,0.629l-0.918,2.856 C13.683,30.757,13.486,30.892,13.275,30.892z M15.112,25.18c-0.051,0-0.102-0.008-0.153-0.024 c-0.263-0.084-0.408-0.366-0.323-0.629l0.918-2.856c0.085-0.263,0.366-0.405,0.629-0.323c0.263,0.084,0.407,0.366,0.323,0.629 l-0.918,2.856C15.52,25.045,15.324,25.18,15.112,25.18z"/> </g></symbol><symbol id="wind" viewBox="0 0 368 368"><title>wind</title><g> <g> <path d="M296,48c-39.704,0-72,32.304-72,72c0,4.416,3.576,8,8,8s8-3.584,8-8c0-30.88,25.128-56,56-56s56,25.12,56,56 s-25.128,56-56,56H8c-4.416,0-8,3.584-8,8s3.584,8,8,8h288c39.704,0,72-32.304,72-72S335.704,48,296,48z"/> </g> </g><g> <g> <path d="M144,32c-30.88,0-56,25.12-56,56c0,4.416,3.584,8,8,8s8-3.584,8-8c0-22.056,17.944-40,40-40c22.056,0,40,17.944,40,40 c0,22.056-17.944,40-40,40H8c-4.416,0-8,3.584-8,8s3.584,8,8,8h136c30.88,0,56-25.12,56-56S174.88,32,144,32z"/> </g> </g><g> <g> <path d="M280,224H8c-4.416,0-8,3.584-8,8c0,4.416,3.584,8,8,8h272c22.056,0,40,17.944,40,40c0,22.056-17.944,40-40,40 c-22.056,0-40-17.944-40-40c0-4.416-3.576-8-8-8s-8,3.584-8,8c0,30.88,25.128,56,56,56s56-25.12,56-56S310.872,224,280,224z"/> </g> </g></symbol><symbol id="partly-cloudy-day" viewBox="0 0 397.401 397.401"><title>sun-1</title><g> <g> <path d="M173.573,97.768l-21.88-22.12c-2.58-3.084-7.171-3.492-10.255-0.912c-3.084,2.58-3.492,7.171-0.912,10.255 c0.258,0.308,0.541,0.595,0.847,0.857l21.88,22.12c3.053,2.616,7.649,2.261,10.265-0.792 C175.832,104.475,175.856,100.496,173.573,97.768z"/> </g> </g><g> <g> <path d="M359.085,76.793c-2.58-3.084-7.171-3.492-10.255-0.912c-0.308,0.258-0.595,0.541-0.857,0.847l-22.12,21.88 c-3.084,2.58-3.492,7.171-0.912,10.255c2.58,3.084,7.171,3.492,10.255,0.912c0.308-0.258,0.595-0.541,0.857-0.847l22.12-21.88 C361.256,84.468,361.665,79.877,359.085,76.793z"/> </g> </g><g> <g> <path d="M227.256,72.236c-0.045-0.212-0.099-0.421-0.163-0.628l-8-30.08c-0.832-3.911-4.677-6.407-8.588-5.576 s-6.407,4.677-5.576,8.588c0.045,0.212,0.099,0.421,0.163,0.628l8,30.08c0.832,3.911,4.677,6.407,8.588,5.576 S228.088,76.147,227.256,72.236z"/> </g> </g><g> <g> <path d="M326.733,227.128c-1.36-1.36-2.773-2.693-4.24-4l1.2-2.16c1.489-2.737,2.824-5.555,4-8.44 c17.039-42.555-3.646-90.866-46.201-107.905c-0.08-0.032-0.159-0.064-0.239-0.095c-38.472-15.335-82.362,0.024-102.88,36 c-50.15-14.006-102.159,15.294-116.166,65.445c-2.331,8.345-3.5,16.971-3.474,25.635c0,1.2,0,2.453,0,3.76 c-34.817,2.469-61.041,32.695-58.572,67.512c2.333,32.907,29.584,58.483,62.572,58.728h0.2h208 c43.498,0.075,78.821-35.125,78.897-78.623C349.866,262.035,341.554,241.934,326.733,227.128z M225.293,118.048 c16.222-6.451,34.298-6.451,50.52,0c35.167,14.031,52.331,53.889,38.36,89.08c-1.012,2.423-2.16,4.787-3.44,7.08v0.64 c-20.081-11.674-44.288-13.898-66.16-6.08c-4.037-16.106-12.262-30.858-23.84-42.76c8.089-15.018,26.11-21.643,42-15.44 c3.798,1.249,7.89-0.818,9.139-4.616c1.146-3.484-0.495-7.275-3.819-8.824c-21.575-8.645-46.243-0.591-58.56,19.12 c-5.459-4.104-11.346-7.605-17.56-10.44C199.745,133.179,211.454,123.435,225.293,118.048z M286.128,345.289 c-4.951,1.183-10.025,1.774-15.115,1.76h-208c-26.885-0.024-48.66-21.839-48.636-48.724c0.012-12.885,5.131-25.239,14.236-34.356 l-0.08,0.04c9.117-9.132,21.496-14.257,34.4-14.24h1.76h1.56c3.989,0.272,7.444-2.742,7.715-6.731 c0.043-0.625,0.004-1.254-0.115-1.869c-0.16-1.387-0.293-2.893-0.4-4.52c0-1.52,0-3.2,0-5.08 c0.593-44.046,36.78-79.272,80.827-78.679c38.703,0.521,71.445,28.754,77.653,66.959c0.573,3.957,4.245,6.701,8.203,6.128 c0.764-0.111,1.506-0.343,2.197-0.688c4.429-2.215,9.1-3.906,13.92-5.04c34.529-8.25,69.208,13.054,77.458,47.583 C341.961,302.36,320.657,337.039,286.128,345.289z"/> </g> </g><g> <g> <path d="M397.077,145.396c-1.104-3.581-4.759-5.727-8.425-4.948l-30.08,8c-3.862,1-6.187,4.935-5.2,8.8 c0.997,3.872,4.944,6.203,8.817,5.206c0.008-0.002,0.016-0.004,0.023-0.006l30.08-8 C396.114,153.27,398.256,149.217,397.077,145.396z"/> </g> </g><g> <g> <path d="M391.973,216.168l-30-8.2c-3.855-1.105-7.875,1.125-8.98,4.98s1.125,7.875,4.98,8.98l30,8.2 c3.855,1.105,7.875-1.125,8.98-4.98C398.057,221.293,395.828,217.273,391.973,216.168z"/> </g> </g><g> <g> <path d="M289.753,36.668c-3.855-1.105-7.875,1.125-8.98,4.98l-8.2,30c-1.144,3.831,1.034,7.865,4.865,9.009 c0.084,0.025,0.169,0.049,0.255,0.071c3.836,1.129,7.861-1.065,8.99-4.901c0.018-0.059,0.034-0.119,0.05-0.179l8-30 C295.837,41.793,293.608,37.773,289.753,36.668z"/> </g> </g></symbol><symbol id="cloudy" viewBox="0 -16 512.00029 512"><title>cloudy</title><path d="m230 470c0 5.523438-4.476562 10-10 10s-10-4.476562-10-10 4.476562-10 10-10 10 4.476562 10 10zm0 0"/><path d="m70 480h105c5.523438 0 10-4.476562 10-10s-4.476562-10-10-10h-105c-27.570312 0-50-22.429688-50-50s22.429688-50 50-50c5.523438 0 10-4.476562 10-10 0-27.570312 22.429688-50 50-50 2.578125 0 5.1875.347656 8.3125.863281 4.4375.738281 8.816406-1.574219 10.710938-5.652343 15.195312-32.761719 48.15625-55.210938 85.976562-55.210938 47.476562 0 87.785156 35.746094 93.757812 83.148438.351563 2.792968 1.863282 5.308593 4.164063 6.925781 2.300781 1.621093 5.179687 2.199219 7.925781 1.589843 5.039063-1.121093 9.667969-1.664062 14.152344-1.664062 35.523438 0 65 28.574219 65 65 0 35.839844-29.160156 65-65 65h-90c-5.523438 0-10 4.476562-10 10s4.476562 10 10 10h90c46.867188 0 85-38.128906 85-85 0-24.371094-10.179688-46.882812-27.554688-62.71875 42.066407-13.386719 77.230469-43.71875 98.480469-85.738281 1.863281-3.6875 1.269531-8.140625-1.496093-11.207031-2.769532-3.070313-7.136719-4.121094-10.992188-2.648438-11.507812 4.386719-22.109375 7.3125-36.4375 7.3125-60.652344 0-110-49.347656-110-110 0-44.386719 26.445312-84.199219 67.367188-101.421875 3.808593-1.601563 6.234374-5.378906 6.117187-9.503906s-2.757813-7.753907-6.644531-9.136719c-18.566406-6.59375-37.6875-9.9375-56.839844-9.9375-93.738281 0-170 76.261719-170 170 0 18.949219 3.078125 37.4375 9.144531 55.125-28.386719 8.828125-52.554687 28.636719-66.933593 55.050781-1.367188-.109375-2.769532-.175781-4.210938-.175781-35.421875 0-64.78125 26.441406-69.375 60.625-34.183594 4.59375-60.625 33.957031-60.625 69.375 0 38.597656 31.402344 70 70 70zm292-460c8.972656 0 17.945312.835938 26.847656 2.496094-35.175781 23.890625-56.847656 63.820312-56.847656 107.503906 0 71.683594 58.316406 130 130 130 6.398438 0 12.378906-.460938 18.394531-1.476562-22.15625 31.0625-54.109375 52.011718-90.636719 58.902343-10.9375-4.921875-22.613281-7.425781-34.757812-7.425781-2.6875 0-5.394531.144531-8.152344.429688-11.398437-52.21875-57.785156-90.429688-111.847656-90.429688-4.730469 0-9.46875.292969-14.15625.875-5.871094-16.273438-8.84375-33.347656-8.84375-50.875 0-82.710938 67.289062-150 150-150zm0 0"/></symbol><symbol id="rainy" viewBox="0 0 496.002 496.002"><title>rainy</title><rect x="352.002" y="464.002" width="16" height="32"/><rect x="352.002" y="416.002" width="16" height="32"/><rect x="352.002" y="368.002" width="16" height="32"/><rect x="304.002" y="440.002" width="16" height="32"/><rect x="304.002" y="392.002" width="16" height="32"/><rect x="256.002" y="464.002" width="16" height="32"/><rect x="256.002" y="416.002" width="16" height="32"/><rect x="256.002" y="368.002" width="16" height="32"/><rect x="208.002" y="440.002" width="16" height="32"/><rect x="208.002" y="392.002" width="16" height="32"/><rect x="160.002" y="464.002" width="16" height="32"/><rect x="160.002" y="416.002" width="16" height="32"/><rect x="160.002" y="368.002" width="16" height="32"/><rect x="112.002" y="440.002" width="16" height="32"/><rect x="112.002" y="392.002" width="16" height="32"/><path d="M413.978,209.098c-11.008-64.912-67.52-113.096-133.976-113.096c-48.832,0-92.584,25.856-116.6,66.104 c-19.352-13.088-32.224-33.736-34.856-56.712c-3.328-29.016,8.704-56.616,32.168-73.84c4.632-3.408,7.288-8.56,7.288-14.136 c0-4.672-1.832-9.064-5.16-12.36c-3.328-3.304-7.736-5.128-12.432-5.056c-2.16,0.016-4.008,0.04-4.688,0.072 c-41.216,1.68-79.136,19.536-106.776,50.28C11.338,81.058-2.374,120.77,0.338,162.178c1.96,29.952,12.872,58.168,31.48,82.224 c-19.4,16.152-31.816,40.432-31.816,67.6c0,48.52,39.48,88,88,88v-16c-39.696,0-72-32.296-72-72 c0-39.704,32.304-72,71.688-72.008l5.536,0.04l2.312-3.992c10.008-17.296,28.576-28.04,48.464-28.04 c3.352,0,6.856,0.336,10.416,1.008l7.424,1.4l1.824-7.336c13.296-53.624,61.136-91.072,116.336-91.072 c60.504,0,111.672,45.28,119.008,105.32l0.56,4.552c0.272,3.344,0.432,6.72,0.432,10.128c0,66.168-53.832,120-120,120v16 c74.992,0,136-61.008,136-136c0-2.12-0.176-4.2-0.272-6.296c36.704,7.384,64.272,40.064,64.272,78.296c0,44.112-35.888,80-80,80 v16c52.936,0,96-43.064,96-96C496.002,256.426,460.466,215.93,413.978,209.098z M150.05,192.274 c-26.712-2.368-51.504,10.264-65.912,31.816c-14.176,0.616-27.464,4.64-39.136,11.208 c-16.976-21.672-26.928-47.144-28.696-74.168c-2.432-37.064,9.832-72.608,34.528-100.08 c24.736-27.504,58.664-43.488,95.544-44.992c0.616-0.024,2.264-0.04,4.176-0.056c0.008,0,0.008,0,0.016,0 c0.488,0,0.816,0.224,1.008,0.416c0.192,0.192,0.424,0.52,0.424,1c0,0.632-0.592,1.12-0.76,1.24 c-28.152,20.656-42.576,53.76-38.592,88.552c3.24,28.28,19.36,53.544,43.464,69.16 C153.81,181.514,151.722,186.778,150.05,192.274z"/><rect x="216.002" y="0.002" width="16" height="16"/><rect x="232.002" y="16.002" width="16" height="16"/><rect x="216.002" y="32.002" width="16" height="16"/><rect x="200.002" y="16.002" width="16" height="16"/><rect x="184.002" y="64.002" width="16" height="16"/><rect x="200.002" y="80.002" width="16" height="16"/><rect x="184.002" y="96.002" width="16" height="16"/><rect x="168.002" y="80.002" width="16" height="16"/></symbol><symbol id="moon" viewBox="0 0 512 512"><title>moon</title><path d="M503.686,326.871c-7.932-6.33-19.109-6.452-27.18-0.29c-35.597,27.194-78.143,41.567-123.041,41.567 c-12.218,0-24.465-1.1-36.401-3.268c-4.761-0.868-9.317,2.291-10.181,7.051c-0.865,4.758,2.292,9.317,7.051,10.181 c12.966,2.356,26.266,3.55,39.53,3.55c48.774,0,94.997-15.617,133.671-45.162c1.67-1.276,3.982-1.25,5.624,0.059 c1.641,1.31,2.176,3.559,1.303,5.469c-19.069,41.693-49.47,77.047-87.915,102.238c-39.456,25.851-85.352,39.517-132.724,39.517 c-133.718,0-242.506-108.788-242.506-242.506c0-47.375,13.665-93.27,39.517-132.723c25.191-38.447,60.544-68.847,102.242-87.917 c1.908-0.874,4.152-0.337,5.462,1.305c1.309,1.641,1.336,3.953,0.061,5.621c-29.546,38.68-45.163,84.903-45.163,133.673 c0,47.23,14.783,92.296,42.752,130.328c27.397,37.254,64.95,64.578,108.6,79.017c4.595,1.516,9.545-0.974,11.065-5.564 c1.518-4.592-0.973-9.547-5.564-11.065c-83.343-27.567-139.338-105.013-139.338-192.715c0-44.895,14.374-87.442,41.567-123.042 c6.163-8.068,6.042-19.244-0.292-27.179c-6.337-7.94-17.215-10.527-26.439-6.304c-44.699,20.442-82.6,53.032-109.603,94.242 c-27.727,42.313-42.382,91.528-42.382,142.323c0,143.376,116.646,260.021,260.021,260.021 c50.792,0,100.007-14.655,142.324-42.382c41.209-27.003,73.8-64.903,94.245-109.603 C514.213,344.081,511.622,333.208,503.686,326.871z"/><path d="M251.454,164.085c20.691,0,37.526,16.834,37.526,37.525c0,4.836,3.921,8.757,8.757,8.757s8.757-3.921,8.757-8.757 c0-20.691,16.834-37.525,37.525-37.525c4.836,0,8.757-3.921,8.757-8.757c0-4.836-3.921-8.757-8.757-8.757 c-20.691,0-37.525-16.835-37.525-37.526c0-4.836-3.921-8.757-8.757-8.757s-8.757,3.921-8.757,8.757 c0,20.691-16.835,37.526-37.526,37.526c-4.836,0-8.757,3.921-8.757,8.757C242.697,160.164,246.618,164.085,251.454,164.085z M297.737,138.804c4.267,6.614,9.909,12.256,16.523,16.524c-6.614,4.267-12.255,9.909-16.523,16.523 c-4.267-6.614-9.91-12.255-16.524-16.523C287.827,151.061,293.47,145.418,297.737,138.804z"/><path d="M375.404,276.696c15.022,0,27.244-12.221,27.244-27.242c0-15.022-12.222-27.244-27.244-27.244 s-27.243,12.222-27.243,27.244C348.163,264.475,360.383,276.696,375.404,276.696z M375.404,239.726 c5.364,0,9.729,4.364,9.729,9.729c0,5.363-4.364,9.727-9.729,9.727s-9.728-4.363-9.728-9.727 C365.677,244.09,370.04,239.726,375.404,239.726z"/><path d="M40.451,436.768c-15.022,0-27.243,12.221-27.243,27.243c0,15.022,12.221,27.244,27.243,27.244 c15.022,0,27.243-12.222,27.243-27.244C67.694,448.989,55.473,436.768,40.451,436.768z M40.451,473.739 c-5.364,0-9.728-4.364-9.728-9.729c0-5.365,4.364-9.727,9.728-9.727s9.728,4.363,9.728,9.728 C50.179,469.375,45.816,473.739,40.451,473.739z"/><circle cx="297.736" cy="260.44" r="10.979"/><circle cx="10.979" cy="392.27" r="10.979"/><circle cx="368.144" cy="90.735" r="10.979"/></symbol><symbol id="sleet" viewBox="0 0 480 480"><title>sleet</title><g> <g> <polygon points="208,320 187.312,320 201.656,305.656 190.344,294.344 176,308.688 176,288 160,288 160,308.688 145.656,294.344 134.344,305.656 148.688,320 128,320 128,336 148.688,336 134.344,350.344 145.656,361.656 160,347.312 160,368 176,368 176,347.312 190.344,361.656 201.656,350.344 187.312,336 208,336 "/> </g> </g><g> <g> <polygon points="368,320 347.312,320 361.656,305.656 350.344,294.344 336,308.688 336,288 320,288 320,308.688 305.656,294.344 294.344,305.656 308.688,320 288,320 288,336 308.688,336 294.344,350.344 305.656,361.656 320,347.312 320,368 336,368 336,347.312 350.344,361.656 361.656,350.344 347.312,336 368,336 "/> </g> </g><g> <g> <polygon points="368,432 347.312,432 361.656,417.656 350.344,406.344 336,420.688 336,400 320,400 320,420.688 305.656,406.344 294.344,417.656 308.688,432 288,432 288,448 308.688,448 294.344,462.344 305.656,473.656 320,459.312 320,480 336,480 336,459.312 350.344,473.656 361.656,462.344 347.312,448 368,448 "/> </g> </g><g> <g> <polygon points="208,432 187.312,432 201.656,417.656 190.344,406.344 176,420.688 176,400 160,400 160,420.688 145.656,406.344 134.344,417.656 148.688,432 128,432 128,448 148.688,448 134.344,462.344 145.656,473.656 160,459.312 160,480 176,480 176,459.312 190.344,473.656 201.656,462.344 187.312,448 208,448 "/> </g> </g><g> <g> <rect x="80" y="288" width="16" height="192"/> </g> </g><g> <g> <rect x="240" y="288" width="16" height="192"/> </g> </g><g> <g> <rect x="400" y="288" width="16" height="192"/> </g> </g><g> <g> <path d="M390.24,72.952C376.04,30.384,327.304,0,272,0c-51.352,0-94.76,28.784-109.92,72.216 c-32.712,2.032-60.184,17.392-71.312,39.736c-0.128,0-0.24,0.008-0.36,0.008L88,112c-48.52,0-88,35.888-88,80s39.48,80,88,80 h280.272C428.832,269.928,480,222.304,480,168C480,121.504,443.352,83.016,390.24,72.952z M368,256H88c-39.704,0-72-28.712-72-64 c0-35.288,32.296-64,72-64l2.76-0.04c0.872-0.016,1.776-0.04,2.64-0.04c0.696,0,1.376,0.016,2.008,0.064 c3.536,0.296,6.88-1.872,8.112-5.232c7.312-20.048,33.864-34.336,64.592-34.744c3.528-0.048,6.616-2.408,7.584-5.808 C186.992,42.6,225.696,16,272,16c49.496,0,94.32,28.392,104.264,66.04c0.816,3.08,3.376,5.384,6.52,5.864 C430.608,95.208,464,128.144,464,168C464,213.92,419.912,254.224,368,256z"/> </g> </g></symbol><symbol id="haze" viewBox="0 0 512 512"><title>haze</title><path d="M42.667,187.733h273.067c4.719,0,8.533-3.823,8.533-8.533s-3.814-8.533-8.533-8.533H42.667 c-4.719,0-8.533,3.823-8.533,8.533S37.948,187.733,42.667,187.733z"/><path d="M247.467,273.067H59.733c-4.719,0-8.533,3.823-8.533,8.533c0,4.71,3.814,8.533,8.533,8.533h187.733 c4.719,0,8.533-3.823,8.533-8.533C256,276.89,252.186,273.067,247.467,273.067z"/><path d="M119.467,230.4c0-4.71-3.814-8.533-8.533-8.533H8.533C3.814,221.867,0,225.69,0,230.4c0,4.71,3.814,8.533,8.533,8.533 h102.4C115.652,238.933,119.467,235.11,119.467,230.4z"/><path d="M93.867,136.533h119.467c4.719,0,8.533-3.823,8.533-8.533c0-4.71-3.814-8.533-8.533-8.533H93.867 c-4.719,0-8.533,3.823-8.533,8.533C85.333,132.71,89.148,136.533,93.867,136.533z"/><path d="M238.933,128c0,4.71,3.814,8.533,8.533,8.533H435.2c4.719,0,8.533-3.823,8.533-8.533c0-4.71-3.814-8.533-8.533-8.533 H247.467C242.748,119.467,238.933,123.29,238.933,128z"/><path d="M349.867,170.667c-4.719,0-8.533,3.823-8.533,8.533s3.814,8.533,8.533,8.533h68.267c4.719,0,8.533-3.823,8.533-8.533 s-3.814-8.533-8.533-8.533H349.867z"/><path d="M179.2,85.333h221.867c4.719,0,8.533-3.823,8.533-8.533s-3.814-8.533-8.533-8.533H179.2 c-4.719,0-8.533,3.823-8.533,8.533S174.481,85.333,179.2,85.333z"/><path d="M469.333,273.067H281.6c-4.719,0-8.533,3.823-8.533,8.533c0,4.71,3.814,8.533,8.533,8.533h187.733 c4.719,0,8.533-3.823,8.533-8.533C477.867,276.89,474.052,273.067,469.333,273.067z"/><path d="M418.133,375.467H247.467c-4.719,0-8.533,3.823-8.533,8.533s3.814,8.533,8.533,8.533h170.667 c4.719,0,8.533-3.823,8.533-8.533S422.852,375.467,418.133,375.467z"/><path d="M366.933,426.667H145.067c-4.719,0-8.533,3.823-8.533,8.533s3.814,8.533,8.533,8.533h221.867 c4.719,0,8.533-3.823,8.533-8.533S371.652,426.667,366.933,426.667z"/><path d="M503.467,221.867h-358.4c-4.719,0-8.533,3.823-8.533,8.533c0,4.71,3.814,8.533,8.533,8.533h358.4 c4.719,0,8.533-3.823,8.533-8.533C512,225.69,508.186,221.867,503.467,221.867z"/><path d="M93.867,324.267c-4.719,0-8.533,3.823-8.533,8.533s3.814,8.533,8.533,8.533h68.267c4.719,0,8.533-3.823,8.533-8.533 s-3.814-8.533-8.533-8.533H93.867z"/><path d="M221.867,384c0-4.71-3.814-8.533-8.533-8.533h-153.6c-4.719,0-8.533,3.823-8.533,8.533s3.814,8.533,8.533,8.533h153.6 C218.052,392.533,221.867,388.71,221.867,384z"/><path d="M187.733,332.8c0,4.71,3.814,8.533,8.533,8.533H384c4.719,0,8.533-3.823,8.533-8.533s-3.814-8.533-8.533-8.533H196.267 C191.548,324.267,187.733,328.09,187.733,332.8z"/></symbol><symbol id="hail" viewBox="0 -32 463.99397 463"><title>hail</title><path d="m385.609375 73.875c-9.085937-.011719-18.101563 1.597656-26.621094 4.746094-13.429687-40.078125-47.847656-69.5-89.527343-76.527344-41.675782-7.03125-83.839844 9.46875-109.671876 42.925781-22.847656-14.898437-52.019531-16.082031-76-3.085937-23.976562 12.996094-38.910156 38.085937-38.898437 65.363281 0 .941406.027344 1.898437.070313 2.878906-29.425782 7.90625-48.433594 36.394531-44.4375 66.601563 3.996093 30.203125 29.761718 52.769531 60.230468 52.75h324.855469c27.9375.199218 53.835937-14.589844 67.863281-38.75 14.027344-24.164063 14.027344-53.988282 0-78.152344-14.027344-24.160156-39.925781-38.949219-67.863281-38.75zm0 141.652344h-324.855469c-24.421875.035156-44.75-18.75-46.636718-43.097656-1.886719-24.347657 15.300781-46.039063 39.433593-49.769532 3.746094-.578125 6.347657-4.03125 5.878907-7.789062-3.125-24.386719 8.878906-48.226563 30.328124-60.242188 21.449219-12.015625 48.046876-9.804687 67.214844 5.59375 1.523438 1.222656 3.488282 1.753906 5.421875 1.464844 1.933594-.289062 3.65625-1.375 4.753907-2.992188 22.121093-32.722656 61.359374-49.449218 100.285156-42.753906 38.925781 6.691406 70.320312 35.566406 80.242187 73.796875 3.222657 16.015625 2.703125 32.558594-1.527343 48.335938-1.171876 3.648437.808593 7.558593 4.4375 8.777343 3.632812 1.21875 7.570312-.710937 8.835937-4.324218 4.601563-16.296875 5.597656-33.402344 2.910156-50.121094 7.398438-2.976562 15.296875-4.515625 23.273438-4.539062 22.921875-.179688 44.183593 11.945312 55.695312 31.765624 11.515625 19.824219 11.515625 44.296876 0 64.121094-11.511719 19.820313-32.773437 31.945313-55.695312 31.765625zm-42.59375 118.609375c-15.113281 0-27.363281 12.25-27.363281 27.363281s12.25 27.363281 27.363281 27.363281 27.363281-12.25 27.363281-27.363281c-.015625-15.105469-12.257812-27.347656-27.363281-27.363281zm0 40.726562c-7.378906 0-13.363281-5.984375-13.363281-13.363281 0-7.382812 5.984375-13.363281 13.363281-13.363281 7.382813 0 13.363281 5.980469 13.363281 13.363281-.007812 7.375-5.984375 13.355469-13.363281 13.363281zm-288.238281-76.179687c-15.117188-.003906-27.371094 12.25-27.371094 27.367187.003906 15.113281 12.261719 27.367188 27.375 27.359375 15.117188-.003906 27.363281-12.261718 27.355469-27.378906-.027344-15.097656-12.261719-27.328125-27.359375-27.347656zm0 40.730468c-7.378906.003907-13.363282-5.976562-13.371094-13.351562-.003906-7.378906 5.972656-13.367188 13.351562-13.375 7.378907-.007812 13.367188 5.964844 13.378907 13.34375 0 7.382812-5.980469 13.367188-13.359375 13.378906zm95.335937-10.953124c-18.246093 0-33.035156 14.789062-33.039062 33.03125 0 18.246093 14.789062 33.039062 33.035156 33.039062s33.035156-14.789062 33.039063-33.03125c-.019532-18.238281-14.796876-33.019531-33.035157-33.039062zm0 52.074218c-10.515625 0-19.039062-8.523437-19.039062-19.035156 0-10.515625 8.523437-19.035156 19.039062-19.035156 10.511719 0 19.035157 8.519531 19.035157 19.035156-.011719 10.507812-8.527344 19.023438-19.035157 19.035156zm197.78125-94.847656c11.984375 0 21.699219-9.714844 21.699219-21.695312 0-11.984376-9.714844-21.695313-21.699219-21.695313-11.980469 0-21.695312 9.710937-21.695312 21.695313.015625 11.976562 9.722656 21.679687 21.695312 21.695312zm0-29.390625c4.25 0 7.699219 3.445313 7.699219 7.695313s-3.449219 7.695312-7.699219 7.695312-7.695312-3.445312-7.695312-7.695312c.003906-4.25 3.449219-7.691407 7.695312-7.695313zm-240.425781-.066406-21.414062 26.820312c-1.539063 2.015625-4.050782 3.039063-6.558594 2.675781-2.511719-.363281-4.628906-2.054687-5.535156-4.421874-.910157-2.367188-.464844-5.042969 1.160156-6.988282l21.410156-26.820312c1.542969-2.015625 4.050781-3.039063 6.5625-2.675782 2.507812.363282 4.625 2.054688 5.535156 4.421876.90625 2.367187.464844 5.042968-1.160156 6.988281zm12.398438 61.800781c-2.6875 0-5.140626-1.542969-6.304688-3.964844-1.167969-2.425781-.839844-5.300781.835938-7.402344l30.246093-37.890624c2.410157-3.019532 6.816407-3.515626 9.839844-1.101563 3.023437 2.410156 3.515625 6.816406 1.105469 9.839844l-30.246094 37.886719c-1.328125 1.664062-3.34375 2.632812-5.472656 2.632812zm111.230468-53.546875-40.644531 50.914063c-2.414063 3.023437-6.820313 3.515624-9.839844 1.105468-3.023437-2.414062-3.519531-6.820312-1.105469-9.839844l40.640626-50.917968c2.410156-3.019532 6.816406-3.515625 9.839843-1.101563 3.023438 2.410157 3.515625 6.816407 1.105469 9.839844zm71.6875-8.253906-75.472656 94.546875c-2.417969 3.023437-6.824219 3.515625-9.847656 1.101562-3.019532-2.417968-3.511719-6.824218-1.097656-9.847656l75.46875-94.53125c2.414062-3.023438 6.816406-3.515625 9.839843-1.105469 3.023438 2.414063 3.515625 6.820313 1.105469 9.839844zm25.328125 49.800781-71.921875 90.101562c-2.410156 3.019532-6.816406 3.515626-9.839844 1.101563-3.023437-2.410156-3.515624-6.816406-1.105468-9.839844l71.921875-90.097656c2.414062-3.023437 6.816406-3.519531 9.839843-1.105469 3.023438 2.414063 3.515626 6.816406 1.105469 9.839844zm86-26.175781-28.367187 35.535156c-2.410156 3.023437-6.816406 3.515625-9.839844 1.105469-3.019531-2.414063-3.515625-6.820313-1.101562-9.839844l28.363281-35.535156c2.414062-3.023438 6.816406-3.519532 9.839843-1.105469 3.023438 2.410156 3.515626 6.816406 1.105469 9.839844zm0 0"/></symbol><symbol id="lightning" viewBox="0 -3 512 512"><title>lightning</title><path d="m67.839844 314.222656c-3.710938-1.84375-8.210938-.332031-10.054688 3.378906l-34.390625 69.175782c-1.84375 3.707031-.332031 8.207031 3.378907 10.050781 3.734374 1.859375 8.222656.304687 10.054687-3.375l34.386719-69.175781c1.84375-3.710938.332031-8.210938-3.375-10.054688zm0 0"/><path d="m117.496094 314.222656c-3.710938-1.84375-8.210938-.332031-10.054688 3.378906l-34.390625 69.175782c-2.496093 5.023437 1.210938 10.839844 6.710938 10.839844 2.757812 0 5.410156-1.527344 6.722656-4.164063l34.386719-69.175781c1.847656-3.710938.332031-8.210938-3.375-10.054688zm0 0"/><path d="m416.175781 314.222656c-3.710937-1.84375-8.210937-.332031-10.054687 3.378906l-34.390625 69.175782c-1.84375 3.707031-.332031 8.207031 3.378906 10.050781 1.074219.535156 2.210937.789063 3.332031.789063 2.757813 0 5.410156-1.527344 6.722656-4.164063l34.390626-69.175781c1.839843-3.710938.332031-8.210938-3.378907-10.054688zm0 0"/><path d="m465.832031 314.222656c-3.710937-1.84375-8.210937-.332031-10.054687 3.378906l-34.386719 69.175782c-1.84375 3.707031-.332031 8.207031 3.375 10.050781 1.074219.535156 2.210937.789063 3.332031.789063 2.757813 0 5.414063-1.527344 6.722656-4.164063l34.390626-69.175781c1.84375-3.710938.332031-8.210938-3.378907-10.054688zm0 0"/><path d="m319.429688 291.59375-51.265626-1.074219 40.933594-128.808593c3.28125-10.320313-10.183594-17.574219-16.992187-9.128907l-137.335938 170.402344c-6.625 8.214844-.789062 20.476563 9.792969 20.476563h48.625l-71.410156 148.132812c-4.917969 10.195312 8.582031 19.226562 16.132812 10.816406l170.613282-189.832031c7.199218-8.007813 1.660156-20.757813-9.09375-20.984375zm-148.324219 173.695312 57.265625-118.785156c4.019531-8.347656-2.050782-18.042968-11.332032-18.042968h-47.417968l116.800781-144.921876-33.535156 105.519532c-2.542969 8.015625 3.320312 16.210937 11.726562 16.390625l49.226563 1.03125zm0 0"/><path d="m452.335938 131.542969c3.859374-59.96875-59.625-98.859375-108.1875-67.042969-27.210938-40.542969-71.117188-64.5-118.984376-64.5-72.042968 0-132.609374 54.871094-143.476562 127.847656-45.246094 1.242188-81.6875 39.886719-81.6875 87.207032l.00390625.6875c.24999975 33.773437 28.08203175 61.253906 62.03515575 61.253906h107.054688c4.144531 0 7.5-3.359375 7.5-7.5 0-4.144532-3.355469-7.5-7.5-7.5h-107.054688c-25.746093 0-46.847656-20.800782-47.035156-46.347656l-.003906-.59375c0-40.828126 32.722656-74.453126 72.851562-72.113282 4.003907.230469 7.480469-2.722656 7.894532-6.710937 7.117187-68.332031 62.5-121.230469 129.417968-121.230469 45.226563 0 86.546876 23.992188 110.53125 64.179688 2.375 3.972656 7.746094 4.863281 11.273438 1.894531 39.511719-33.265625 97.898438 2.011719 89.8125 54.90625-.597656 3.898437 1.925781 7.589843 5.773438 8.453125 31.546874 7.070312 54.445312 36.769531 54.445312 70.621094l-.003906.574218c-.1875 25.566406-21.289063 46.367188-47.035156 46.367188h-152.582032c-4.144531 0-7.5 3.355468-7.5 7.5 0 4.140625 3.355469 7.5 7.5 7.5h152.582032c33.953124 0 61.785156-27.480469 62.035156-61.277344l.003906-.664062c0-38.527344-24.332031-72.402344-59.664062-83.511719zm0 0"/></symbol><symbol id="tornado" viewBox="0 0 339.281 339.281"><title>tornado</title><g> <path d="M169.641,90.478c-43.771,0-84.993-3.301-116.071-9.293C17.022,74.137,0,64.772,0,51.713s17.022-22.424,53.57-29.472 c31.078-5.992,72.3-9.293,116.071-9.293s84.993,3.301,116.071,9.293c36.548,7.048,53.57,16.412,53.57,29.472 s-17.022,22.424-53.57,29.472C254.633,87.177,213.412,90.478,169.641,90.478z M15.134,51.713 c1.696,2.622,12.294,9.57,45.411,15.512c29.663,5.322,68.407,8.253,109.096,8.253s79.434-2.931,109.096-8.253 c33.117-5.941,43.715-12.89,45.411-15.512c-1.696-2.622-12.294-9.57-45.411-15.512c-29.663-5.322-68.407-8.253-109.096-8.253 s-79.434,2.931-109.096,8.253C27.428,42.143,16.83,49.091,15.134,51.713z"/> </g><g> <path d="M169.641,133.521c-38.504,0-74.773-2.904-102.127-8.179c-32.607-6.288-47.794-14.798-47.794-26.783 c0-4.143,3.358-7.5,7.5-7.5c3.974,0,7.225,3.09,7.483,6.998c1.485,2.176,11.106,8.29,40.411,13.432 c25.845,4.535,59.415,7.032,94.526,7.032c40.975,0,79.726-3.415,106.319-9.368c4.044-0.908,8.052,1.638,8.958,5.68 c0.905,4.042-1.638,8.053-5.68,8.957C251.616,129.974,211.669,133.521,169.641,133.521z"/> </g><g> <path d="M119.162,170.393c-0.218,0-0.438-0.009-0.658-0.028c-21.783-1.894-40.357-4.961-53.715-8.869 c-10.992-3.217-25.605-8.813-25.605-20.227c0-4.143,3.358-7.5,7.5-7.5c3.858,0,7.035,2.913,7.453,6.659 c2.512,2.885,18.731,10.912,65.667,14.993c4.127,0.358,7.181,3.995,6.822,8.121C126.285,167.447,123.009,170.393,119.162,170.393z "/> </g><g> <path d="M209.104,171.229c-3.919,0-7.218-3.044-7.477-7.011c-0.27-4.134,2.862-7.703,6.995-7.974 c51.127-3.339,73.249-11.896,76.521-15.809c0.414-3.751,3.593-6.668,7.454-6.668c4.142,0,7.5,3.357,7.5,7.5 c0,12.103-16.62,17.897-29.121,21.204c-15.545,4.111-36.769,7.134-61.377,8.741C209.435,171.225,209.269,171.229,209.104,171.229z "/> </g><g> <path d="M169.641,212.499c-29.299,0-56.914-2.214-77.758-6.233c-26.073-5.027-37.7-11.838-37.7-22.084c0-4.143,3.358-7.5,7.5-7.5 c3.751,0,6.858,2.753,7.412,6.349c4.967,5.095,39.221,14.469,100.546,14.469c8.293,0,16.56-0.185,24.57-0.55 c4.131-0.164,7.645,3.012,7.833,7.151c0.188,4.138-3.013,7.645-7.151,7.833C186.657,212.309,178.161,212.499,169.641,212.499z"/> </g><g> <path d="M254.545,204.541c-3.374,0-6.439-2.293-7.278-5.716c-0.986-4.023,1.476-8.084,5.499-9.07 c12.509-3.066,16.439-5.887,17.43-6.777c0.576-3.569,3.671-6.296,7.404-6.296c4.142,0,7.5,3.357,7.5,7.5 c0,11.733-16.415,17.115-28.762,20.142C255.737,204.471,255.136,204.541,254.545,204.541z"/> </g><g> <path d="M102.227,244.552c-0.567,0-1.142-0.064-1.718-0.2c-11.793-2.764-25.33-7.287-25.33-17.823c0-4.143,3.358-7.5,7.5-7.5 c3.52,0,6.473,2.424,7.281,5.693c1.109,0.801,4.637,2.839,13.972,5.026c4.033,0.944,6.536,4.98,5.591,9.013 C108.712,242.218,105.63,244.552,102.227,244.552z"/> </g><g> <path d="M168.614,250.599c-8.945,0-17.763-0.259-26.21-0.771c-4.135-0.25-7.283-3.805-7.033-7.939s3.802-7.278,7.939-7.033 c8.146,0.493,16.66,0.743,25.304,0.743c19.948,0,39.25-1.36,54.35-3.83c17.249-2.822,22.85-5.998,24.304-7.048 c0.809-3.269,3.762-5.692,7.281-5.692c4.142,0,7.5,3.357,7.5,7.5c0,11.571-16.701,16.275-31.25,19.081 C214.115,248.827,192.03,250.599,168.614,250.599z"/> </g><g> <path d="M169.641,288.564c-18.158,0-35.298-1.377-48.265-3.877c-11.864-2.287-25.483-6.219-25.483-16.396 c0-4.143,3.358-7.5,7.5-7.5c3.289,0,6.084,2.117,7.095,5.063c4.648,2.919,25.062,7.71,59.153,7.71s54.505-4.791,59.153-7.71 c1.011-2.946,3.806-5.063,7.095-5.063c4.142,0,7.5,3.357,7.5,7.5c0,10.178-13.619,14.109-25.483,16.396 C204.939,287.188,187.798,288.564,169.641,288.564z"/> </g><g> <path d="M169.641,326.333c-11.931,0-23.217-0.909-31.781-2.561c-5.583-1.077-18.656-3.598-18.656-13.219 c0-4.143,3.358-7.5,7.5-7.5c2.873,0,5.369,1.615,6.628,3.987c3.775,1.698,16.595,4.292,36.308,4.292s32.533-2.594,36.308-4.292 c1.26-2.372,3.755-3.987,6.628-3.987c4.142,0,7.5,3.357,7.5,7.5c0,9.621-13.073,12.142-18.656,13.219 C192.858,325.424,181.571,326.333,169.641,326.333z"/> </g></symbol></svg>